<svg width="71" height="71" viewBox="0 0 71 71" fill="none" xmlns="http://www.w3.org/2000/svg">
<path d="M62.6732 8.33812H56.1053V5.40522C56.1053 3.91185 54.5331 2.74194 52.5274 2.74194C50.5189 2.74194 48.9454 3.91185 48.9454 5.40522V8.33812H38.957V5.40522C38.957 3.91185 37.3833 2.74194 35.3749 2.74194C33.3665 2.74194 31.7929 3.91185 31.7929 5.40522V8.33812H21.8081V5.40522C21.8081 3.91185 20.2348 2.74194 18.226 2.74194C16.2172 2.74194 14.644 3.91185 14.644 5.40522V8.33812H8.08055C6.92854 8.33938 5.82408 8.79757 5.00948 9.61214C4.19487 10.4267 3.73665 11.5312 3.73535 12.6832V64.8421C3.73669 65.9941 4.19492 67.0985 5.00951 67.9131C5.8241 68.7277 6.92854 69.1859 8.08055 69.1873H62.6732C63.8247 69.1856 64.9286 68.7271 65.7425 67.9125C66.5564 67.0979 67.0139 65.9936 67.0145 64.8421V12.6832C67.0138 11.5316 66.5563 10.4274 65.7424 9.61282C64.9285 8.79821 63.8247 8.33978 62.6732 8.33812ZM51.1331 5.42163C51.2001 5.27808 51.7033 4.92944 52.5277 4.92944C53.3496 4.92944 53.8514 5.27862 53.9181 5.42163V8.33812H51.1331V5.42163ZM33.9804 5.42286C34.0488 5.2789 34.5524 4.92944 35.3749 4.92944C36.1974 4.92944 36.7011 5.2789 36.7695 5.42286V8.33812H33.9804V5.42286ZM16.8318 5.42286C16.9001 5.2789 17.4037 4.92944 18.2263 4.92944C19.0489 4.92944 19.5525 5.2789 19.6208 5.42286V8.33812H16.8318V5.42286Z" fill="#EAE8E8"/>
<path d="M32.9307 29.014V33.9242C32.9307 34.2142 32.8154 34.4924 32.6103 34.6976C32.4052 34.9027 32.127 35.0179 31.8369 35.0179H26.2725C25.9824 35.0179 25.7042 34.9027 25.4991 34.6976C25.294 34.4924 25.1787 34.2142 25.1787 33.9242V29.014C25.1787 28.724 25.294 28.4458 25.4991 28.2406C25.7042 28.0355 25.9824 27.9203 26.2725 27.9203H31.8369C32.127 27.9203 32.4052 28.0355 32.6103 28.2406C32.8154 28.4458 32.9307 28.724 32.9307 29.014ZM44.4785 27.9203H38.914C38.624 27.9203 38.3458 28.0355 38.1406 28.2406C37.9355 28.4458 37.8203 28.724 37.8203 29.014V33.9242C37.8203 34.2142 37.9355 34.4924 38.1406 34.6976C38.3458 34.9027 38.624 35.0179 38.914 35.0179H44.4785C44.7686 35.0179 45.0468 34.9027 45.2519 34.6976C45.457 34.4924 45.5722 34.2142 45.5722 33.9242V29.014C45.5722 28.724 45.457 28.4458 45.2519 28.2406C45.0468 28.0355 44.7686 27.9203 44.4785 27.9203ZM19.1992 39.9339H13.6304C13.3403 39.9339 13.0621 40.0491 12.857 40.2543C12.6519 40.4594 12.5366 40.7376 12.5366 41.0276V45.9378C12.5366 46.2278 12.6519 46.506 12.857 46.7112C13.0621 46.9163 13.3403 47.0315 13.6304 47.0315H19.1993C19.4894 47.0315 19.7676 46.9163 19.9727 46.7112C20.1779 46.506 20.2931 46.2278 20.2931 45.9378V41.0276C20.2931 40.7376 20.1779 40.4594 19.9727 40.2543C19.7676 40.0491 19.4893 39.9339 19.1992 39.9339ZM31.8368 39.9339H26.2723C25.9823 39.9339 25.7041 40.0491 25.4989 40.2543C25.2938 40.4594 25.1786 40.7376 25.1786 41.0276V45.9378C25.1786 46.2278 25.2938 46.506 25.4989 46.7112C25.7041 46.9163 25.9823 47.0315 26.2723 47.0315H31.8368C32.1269 47.0315 32.4051 46.9163 32.6102 46.7112C32.8153 46.506 32.9305 46.2278 32.9305 45.9378V41.0276C32.9305 40.7376 32.8153 40.4594 32.6102 40.2543C32.4052 40.0492 32.127 39.9339 31.8369 39.9339H31.8368ZM44.4784 39.9339H38.9139C38.6238 39.9339 38.3456 40.0491 38.1405 40.2543C37.9354 40.4594 37.8202 40.7376 37.8202 41.0276V45.9378C37.8202 46.2278 37.9354 46.506 38.1405 46.7112C38.3456 46.9163 38.6238 47.0315 38.9139 47.0315H44.4784C44.7684 47.0315 45.0466 46.9163 45.2518 46.7112C45.4569 46.506 45.5721 46.2278 45.5721 45.9378V41.0276C45.5721 40.7376 45.4569 40.4594 45.2518 40.2543C45.0467 40.0492 44.7686 39.9339 44.4785 39.9339H44.4784ZM19.1991 51.9515H13.6304C13.3403 51.9515 13.0621 52.0667 12.857 52.2718C12.6519 52.4769 12.5366 52.7551 12.5366 53.0452V57.9514C12.5366 58.2415 12.6519 58.5197 12.857 58.7248C13.0621 58.9299 13.3403 59.0451 13.6304 59.0451H19.1993C19.4894 59.0451 19.7676 58.9299 19.9727 58.7248C20.1779 58.5197 20.2931 58.2415 20.2931 57.9514V53.0454C20.2931 52.7553 20.1779 52.4771 19.9727 52.272C19.7676 52.0669 19.4894 51.9516 19.1993 51.9516L19.1991 51.9515ZM31.8367 51.9515H26.2722C25.9821 51.9515 25.7039 52.0667 25.4988 52.2718C25.2937 52.4769 25.1785 52.7551 25.1785 53.0452V57.9514C25.1785 58.2415 25.2937 58.5197 25.4988 58.7248C25.7039 58.9299 25.9821 59.0451 26.2722 59.0451H31.8367C32.1267 59.0451 32.4049 58.9299 32.6101 58.7248C32.8152 58.5197 32.9304 58.2415 32.9304 57.9514V53.0454C32.9304 52.7553 32.8152 52.4772 32.6102 52.2721C32.4051 52.067 32.127 51.9517 31.8369 51.9516L31.8367 51.9515ZM19.1993 27.9203H13.6304C13.3403 27.9203 13.0621 28.0355 12.857 28.2406C12.6519 28.4458 12.5366 28.724 12.5366 29.014V33.9242C12.5366 34.2142 12.6519 34.4924 12.857 34.6976C13.0621 34.9027 13.3403 35.0179 13.6304 35.0179H19.1993C19.4894 35.0179 19.7676 34.9027 19.9727 34.6976C20.1779 34.4924 20.2931 34.2142 20.2931 33.9242V29.014C20.2931 28.724 20.1779 28.4458 19.9727 28.2406C19.7676 28.0355 19.4894 27.9203 19.1993 27.9203ZM57.1201 39.9339H51.5556C51.2655 39.9339 50.9873 40.0491 50.7822 40.2543C50.5771 40.4594 50.4618 40.7376 50.4618 41.0276V45.9378C50.4618 46.2278 50.5771 46.506 50.7822 46.7112C50.9873 46.9163 51.2655 47.0315 51.5556 47.0315H57.1201C57.4101 47.0315 57.6883 46.9163 57.8935 46.7112C58.0986 46.506 58.2138 46.2278 58.2138 45.9378V41.0276C58.2138 40.7376 58.0986 40.4594 57.8935 40.2543C57.6883 40.0491 57.4101 39.9339 57.1201 39.9339ZM44.4785 51.9515H38.914C38.624 51.9515 38.3458 52.0667 38.1406 52.2718C37.9355 52.4769 37.8203 52.7551 37.8203 53.0452V57.9514C37.8203 58.2415 37.9355 58.5197 38.1406 58.7248C38.3458 58.9299 38.624 59.0451 38.914 59.0451H44.4785C44.7686 59.0451 45.0468 58.9299 45.2519 58.7248C45.457 58.5197 45.5722 58.2415 45.5722 57.9514V53.0454C45.5722 52.7553 45.457 52.4771 45.2519 52.272C45.0468 52.0669 44.7686 51.9515 44.4785 51.9515Z" fill="#484868"/>
<path d="M19.1992 27.9203H17.832C18.1221 27.9203 18.4003 28.0355 18.6054 28.2406C18.8105 28.4458 18.9258 28.724 18.9258 29.014V33.9242C18.9258 34.2142 18.8105 34.4924 18.6054 34.6976C18.4003 34.9027 18.1221 35.0179 17.832 35.0179H19.1992C19.4893 35.0179 19.7675 34.9027 19.9726 34.6976C20.1777 34.4924 20.293 34.2142 20.293 33.9242V29.014C20.293 28.724 20.1777 28.4458 19.9726 28.2406C19.7675 28.0355 19.4893 27.9203 19.1992 27.9203Z" fill="#3D3D54"/>
<path d="M31.8369 51.9517H30.4697C30.7598 51.9517 31.038 52.0669 31.2431 52.272C31.4482 52.4771 31.5635 52.7553 31.5635 53.0454V57.9516C31.5635 58.2416 31.4482 58.5198 31.2431 58.725C31.038 58.9301 30.7598 59.0453 30.4697 59.0453H31.8369C32.127 59.0453 32.4052 58.9301 32.6103 58.725C32.8154 58.5198 32.9307 58.2416 32.9307 57.9516V53.0454C32.9307 52.7553 32.8154 52.4771 32.6103 52.272C32.4052 52.0669 32.127 51.9517 31.8369 51.9517Z" fill="#3D3D54"/>
<path d="M31.8369 39.934H30.4697C30.7598 39.934 31.038 40.0492 31.2431 40.2543C31.4482 40.4594 31.5635 40.7376 31.5635 41.0277V45.9378C31.5635 46.2279 31.4482 46.5061 31.2431 46.7112C31.038 46.9163 30.7598 47.0316 30.4697 47.0316H31.8369C32.127 47.0316 32.4052 46.9163 32.6103 46.7112C32.8154 46.5061 32.9307 46.2279 32.9307 45.9378V41.0277C32.9307 40.7376 32.8154 40.4594 32.6103 40.2543C32.4052 40.0492 32.127 39.934 31.8369 39.934Z" fill="#3D3D54"/>
<path d="M19.1992 51.9517H17.832C18.1221 51.9517 18.4003 52.0669 18.6054 52.272C18.8105 52.4771 18.9258 52.7553 18.9258 53.0454V57.9516C18.9258 58.2416 18.8105 58.5198 18.6054 58.725C18.4003 58.9301 18.1221 59.0453 17.832 59.0453H19.1992C19.4893 59.0453 19.7675 58.9301 19.9726 58.725C20.1777 58.5198 20.293 58.2416 20.293 57.9516V53.0454C20.293 52.7553 20.1777 52.4771 19.9726 52.272C19.7675 52.0669 19.4893 51.9517 19.1992 51.9517Z" fill="#3D3D54"/>
<path d="M19.1992 39.934H17.832C18.1221 39.934 18.4003 40.0492 18.6054 40.2543C18.8105 40.4594 18.9258 40.7376 18.9258 41.0277V45.9378C18.9258 46.2279 18.8105 46.5061 18.6054 46.7112C18.4003 46.9163 18.1221 47.0316 17.832 47.0316H19.1992C19.4893 47.0316 19.7675 46.9163 19.9726 46.7112C20.1777 46.5061 20.293 46.2279 20.293 45.9378V41.0277C20.293 40.7376 20.1777 40.4594 19.9726 40.2543C19.7675 40.0492 19.4893 39.934 19.1992 39.934Z" fill="#3D3D54"/>
<path d="M44.4785 51.9517H43.1113C43.4014 51.9517 43.6796 52.0669 43.8847 52.272C44.0898 52.4771 44.2051 52.7553 44.2051 53.0454V57.9516C44.2051 58.2416 44.0898 58.5198 43.8847 58.725C43.6796 58.9301 43.4014 59.0453 43.1113 59.0453H44.4785C44.7686 59.0453 45.0468 58.9301 45.2519 58.725C45.457 58.5198 45.5723 58.2416 45.5723 57.9516V53.0454C45.5723 52.7553 45.457 52.4771 45.2519 52.272C45.0468 52.0669 44.7686 51.9517 44.4785 51.9517Z" fill="#3D3D54"/>
<path d="M44.4785 27.9203H43.1113C43.4014 27.9203 43.6796 28.0355 43.8847 28.2406C44.0898 28.4458 44.2051 28.724 44.2051 29.014V33.9242C44.2051 34.2142 44.0898 34.4924 43.8847 34.6976C43.6796 34.9027 43.4014 35.0179 43.1113 35.0179H44.4785C44.7686 35.0179 45.0468 34.9027 45.2519 34.6976C45.457 34.4924 45.5723 34.2142 45.5723 33.9242V29.014C45.5723 28.724 45.457 28.4458 45.2519 28.2406C45.0468 28.0355 44.7686 27.9203 44.4785 27.9203Z" fill="#3D3D54"/>
<path d="M31.8369 27.9203H30.4697C30.7598 27.9203 31.038 28.0355 31.2431 28.2406C31.4482 28.4458 31.5635 28.724 31.5635 29.014V33.9242C31.5635 34.2142 31.4482 34.4924 31.2431 34.6976C31.038 34.9027 30.7598 35.0179 30.4697 35.0179H31.8369C32.127 35.0179 32.4052 34.9027 32.6103 34.6976C32.8154 34.4924 32.9307 34.2142 32.9307 33.9242V29.014C32.9307 28.724 32.8154 28.4458 32.6103 28.2406C32.4052 28.0355 32.127 27.9203 31.8369 27.9203Z" fill="#3D3D54"/>
<path d="M57.1201 39.934H55.7529C56.043 39.934 56.3212 40.0492 56.5263 40.2543C56.7314 40.4594 56.8467 40.7376 56.8467 41.0277V45.9378C56.8467 46.2279 56.7314 46.5061 56.5263 46.7112C56.3212 46.9163 56.043 47.0316 55.7529 47.0316H57.1201C57.4102 47.0316 57.6884 46.9163 57.8935 46.7112C58.0986 46.5061 58.2139 46.2279 58.2139 45.9378V41.0277C58.2139 40.7376 58.0986 40.4594 57.8935 40.2543C57.6884 40.0492 57.4102 39.934 57.1201 39.934Z" fill="#3D3D54"/>
<path d="M44.4785 39.934H43.1113C43.4014 39.934 43.6796 40.0492 43.8847 40.2543C44.0898 40.4594 44.2051 40.7376 44.2051 41.0277V45.9378C44.2051 46.2279 44.0898 46.5061 43.8847 46.7112C43.6796 46.9163 43.4014 47.0316 43.1113 47.0316H44.4785C44.7686 47.0316 45.0468 46.9163 45.2519 46.7112C45.457 46.5061 45.5723 46.2279 45.5723 45.9378V41.0277C45.5723 40.7376 45.457 40.4594 45.2519 40.2543C45.0468 40.0492 44.7686 39.934 44.4785 39.934Z" fill="#3D3D54"/>
<path d="M53.6471 34.7041C53.3587 34.7041 53.0819 34.5902 52.8771 34.3872L50.6294 32.1587C50.4249 31.9541 50.3097 31.6769 50.3091 31.3876C50.3085 31.0983 50.4225 30.8206 50.6261 30.6152C50.8298 30.4098 51.1065 30.2934 51.3958 30.2916C51.6851 30.2897 51.9633 30.4025 52.1696 30.6053L53.5778 32.0009L56.4405 28.6211C56.628 28.3997 56.8958 28.2619 57.1849 28.238C57.474 28.2141 57.7607 28.3059 57.9821 28.4934C58.2034 28.6809 58.3412 28.9487 58.3652 29.2378C58.3891 29.5269 58.2972 29.8137 58.1097 30.035L54.4823 34.3173C54.3848 34.4324 54.2645 34.5261 54.129 34.5925C53.9935 34.6589 53.8458 34.6965 53.6951 34.703C53.6788 34.7037 53.6629 34.7041 53.6471 34.7041Z" fill="#D22E2E"/>
<path d="M57.4476 65.6657C57.3461 65.7673 57.2255 65.8479 57.0928 65.9029C56.96 65.9579 56.8178 65.9862 56.6741 65.9863H8.08055C6.92854 65.9849 5.8241 65.5267 5.00951 64.7121C4.19492 63.8975 3.73669 62.7931 3.73535 61.6411V64.8421C3.73669 65.9941 4.19492 67.0985 5.00951 67.9131C5.8241 68.7277 6.92854 69.1859 8.08055 69.1873H62.6732C63.8247 69.1856 64.9286 68.7271 65.7425 67.9125C66.5564 67.0979 67.0139 65.9936 67.0145 64.8421V55.6418C67.0145 55.9318 66.8993 56.2099 66.6943 56.415L57.4476 65.6657Z" fill="#D1C9C9"/>
<path d="M67.0144 55.6418V55.4984H58.7456C58.1654 55.4984 57.609 55.7289 57.1988 56.1391C56.7886 56.5494 56.5581 57.1058 56.5581 57.6859V65.9862H56.6739C56.8176 65.9862 56.9599 65.9579 57.0926 65.9029C57.2253 65.8479 57.3459 65.7673 57.4475 65.6656L66.6942 56.415C66.8992 56.2099 67.0143 55.9318 67.0144 55.6418Z" fill="#BCB3B3"/>
<path d="M62.6732 8.33813H51.1331V12.4783C51.1974 12.6218 51.6989 12.973 52.5277 12.973C52.8178 12.973 53.096 13.0883 53.3011 13.2934C53.5062 13.4985 53.6214 13.7767 53.6214 14.0668C53.6214 14.3569 53.5062 14.6351 53.3011 14.8402C53.096 15.0453 52.8178 15.1605 52.5277 15.1605C50.5191 15.1605 48.9456 13.989 48.9456 12.4933V8.33813H33.9804V12.4774C34.0458 12.6215 34.5479 12.973 35.3749 12.973C35.665 12.973 35.9432 13.0883 36.1483 13.2934C36.3535 13.4985 36.4687 13.7767 36.4687 14.0668C36.4687 14.3569 36.3535 14.6351 36.1483 14.8402C35.9432 15.0453 35.665 15.1605 35.3749 15.1605C33.3664 15.1605 31.7929 13.989 31.7929 12.4933V8.33813H16.8321V12.4774C16.8974 12.6215 17.3996 12.973 18.2266 12.973C18.5167 12.973 18.7949 13.0883 19 13.2934C19.2051 13.4985 19.3203 13.7767 19.3203 14.0668C19.3203 14.3569 19.2051 14.6351 19 14.8402C18.7949 15.0453 18.5167 15.1605 18.2266 15.1605C16.2182 15.1605 14.6446 13.989 14.6446 12.4933V8.33813H8.08055C6.92854 8.3394 5.82408 8.79759 5.00948 9.61216C4.19487 10.4267 3.73665 11.5312 3.73535 12.6832V22.0084H67.0145V12.6832C67.0138 11.5317 66.5563 10.4274 65.7424 9.61284C64.9285 8.79823 63.8247 8.3398 62.6732 8.33813Z" fill="#D22E2E"/>
<path d="M3.73535 22.0083H67.0145V23.7162H3.73535V22.0083Z" fill="#D1C9C9"/>
<path d="M36.4689 14.0668C36.4689 14.3568 36.3537 14.635 36.1486 14.8402C35.9435 15.0453 35.6653 15.1605 35.3752 15.1605C33.3667 15.1605 31.7932 13.989 31.7932 12.4933V5.40522C31.7932 3.91185 33.3667 2.74194 35.3752 2.74194C37.3837 2.74194 38.9572 3.91185 38.9572 5.40522V8.33812H36.7697V5.42286C36.7014 5.2789 36.1976 4.92944 35.3752 4.92944C34.5528 4.92944 34.049 5.2789 33.9807 5.42286V12.4775C34.046 12.6217 34.5482 12.9732 35.3752 12.9732C35.6653 12.9732 35.9434 13.0884 36.1485 13.2935C36.3537 13.4985 36.4689 13.7767 36.4689 14.0668ZM18.2266 12.973C17.3998 12.973 16.8977 12.6215 16.832 12.4774V5.42272C16.9004 5.27876 17.4039 4.92931 18.2266 4.92931C19.0492 4.92931 19.5527 5.27876 19.6211 5.42272V8.33812H21.8086V5.40522C21.8086 3.91185 20.2354 2.74194 18.2266 2.74194C16.2178 2.74194 14.6445 3.91185 14.6445 5.40522V12.4933C14.6445 13.989 16.2179 15.1605 18.2266 15.1605C18.5166 15.1605 18.7948 15.0453 19 14.8402C19.2051 14.635 19.3203 14.3568 19.3203 14.0668C19.3203 13.7767 19.2051 13.4985 19 13.2934C18.7948 13.0883 18.5166 12.973 18.2266 12.973ZM52.5277 12.973C51.6991 12.973 51.1977 12.6218 51.1331 12.4782V5.42163C51.2001 5.27808 51.7032 4.92944 52.5277 4.92944C53.3496 4.92944 53.8514 5.27862 53.9181 5.42163V8.33812H56.1056V5.40522C56.1056 3.91185 54.5333 2.74194 52.5277 2.74194C50.5191 2.74194 48.9456 3.91185 48.9456 5.40522V12.4933C48.9456 13.989 50.5188 15.1605 52.5277 15.1605C52.8177 15.1605 53.0959 15.0453 53.3011 14.8402C53.5062 14.635 53.6214 14.3568 53.6214 14.0668C53.6214 13.7767 53.5062 13.4985 53.3011 13.2934C53.0959 13.0883 52.8177 12.973 52.5277 12.973Z" fill="#484868"/>
<path d="M18.2334 12.0161C17.7316 12.0161 17.2473 12.2011 16.8732 12.5356C17.0192 12.6989 17.4957 12.9731 18.2267 12.9731C18.5168 12.9731 18.795 13.0884 19.0001 13.2935C19.2053 13.4986 19.3205 13.7768 19.3205 14.0669C19.3205 14.357 19.2053 14.6352 19.0001 14.8403C18.795 15.0454 18.5168 15.1606 18.2267 15.1606C17.564 15.1667 16.908 15.0283 16.3042 14.7551C16.4305 15.1088 16.6515 15.421 16.9432 15.6576C17.2348 15.8942 17.5859 16.0461 17.958 16.0967C18.3301 16.1474 18.709 16.0949 19.0532 15.9449C19.3975 15.7949 19.694 15.5531 19.9102 15.2461C20.1265 14.9391 20.2542 14.5785 20.2795 14.2039C20.3048 13.8292 20.2267 13.4547 20.0537 13.1214C19.8806 12.7881 19.6194 12.5087 19.2984 12.3138C18.9774 12.1189 18.609 12.0159 18.2334 12.0161Z" fill="#AD1E1E"/>
<path d="M35.3752 12.0161C34.8752 12.016 34.3925 12.1994 34.0188 12.5317C34.1609 12.6945 34.6388 12.973 35.3752 12.973C35.6653 12.973 35.9435 13.0882 36.1486 13.2934C36.3537 13.4985 36.469 13.7767 36.469 14.0668C36.469 14.3568 36.3537 14.635 36.1486 14.8402C35.9435 15.0453 35.6653 15.1605 35.3752 15.1605C34.7094 15.1666 34.0504 15.0269 33.4443 14.7512C33.5699 15.1053 33.7903 15.4182 34.0816 15.6555C34.3729 15.8929 34.7239 16.0456 35.0961 16.0969C35.4683 16.1483 35.8475 16.0963 36.1922 15.9468C36.5369 15.7972 36.8339 15.5557 37.0506 15.2488C37.2673 14.9419 37.3955 14.5812 37.4212 14.2064C37.4468 13.8315 37.3689 13.4568 37.196 13.1232C37.0231 12.7896 36.7618 12.5099 36.4407 12.3148C36.1195 12.1197 35.751 12.0166 35.3752 12.0168V12.0161Z" fill="#AD1E1E"/>
<path d="M52.5255 12.0161C52.0258 12.016 51.5434 12.1992 51.1698 12.5311C51.3097 12.6933 51.7877 12.973 52.5274 12.973C52.8175 12.973 53.0957 13.0883 53.3008 13.2934C53.506 13.4985 53.6212 13.7767 53.6212 14.0668C53.6212 14.3569 53.506 14.6351 53.3008 14.8402C53.0957 15.0453 52.8175 15.1605 52.5274 15.1605C51.8608 15.1667 51.2009 15.0267 50.5942 14.7504C50.7198 15.1045 50.9402 15.4174 51.2315 15.6547C51.5228 15.892 51.8737 16.0447 52.2459 16.0961C52.6181 16.1475 52.9973 16.0956 53.342 15.946C53.6867 15.7965 53.9836 15.5551 54.2004 15.2482C54.4172 14.9413 54.5454 14.5807 54.5711 14.2058C54.5968 13.831 54.5189 13.4563 54.3461 13.1227C54.1732 12.789 53.9119 12.5094 53.5909 12.3142C53.2698 12.119 52.9013 12.016 52.5255 12.0161Z" fill="#AD1E1E"/>
</svg>
