<svg width="71" height="71" viewBox="0 0 71 71" fill="none" xmlns="http://www.w3.org/2000/svg">
<path d="M69.3466 30.633C67.4566 29.6413 61.7516 27.553 53.3749 26.7363V11.6863C53.3749 10.2046 52.2782 8.94464 50.8083 8.74631C45.9316 8.08131 34.1833 6.79797 16.0416 6.79797H13.7083V37.1313H16.0416C22.8316 37.1313 28.6533 37.248 33.5416 37.4346V47.4446C33.5416 49.3463 35.2099 50.8163 37.0999 50.583C39.4449 50.2796 42.7583 49.9646 46.3749 49.9646C56.0349 49.9646 64.1432 51.4696 66.9549 52.0646C67.4799 52.1696 67.9232 51.7263 67.8066 51.2246C67.2582 48.8563 65.4966 43.1046 60.8066 39.4646C60.8066 39.4646 62.9649 35.2763 69.3232 31.8696C69.8249 31.6013 69.8482 30.9013 69.3466 30.633Z" fill="#579E63"/>
<path d="M53.3751 11.6863V41.8563C53.3751 40.4446 52.3834 39.2313 50.9951 38.9513C47.8451 38.333 42.1167 37.7613 33.5417 37.4346C28.6534 37.248 22.8317 37.1313 16.0417 37.1313V6.79797C34.1834 6.79797 45.9317 8.08131 50.8084 8.74631C52.2784 8.94464 53.3751 10.2046 53.3751 11.6863Z" fill="#6BB577"/>
<path d="M53.3748 41.8562C53.3748 43.2329 52.5465 44.4812 50.8432 44.7379C44.8232 45.6479 41.8015 44.7146 36.9948 44.2946C36.9015 44.2829 36.8082 44.2829 36.7148 44.2829C34.9765 44.2829 33.5415 45.6829 33.5415 47.4446V37.4346C42.1165 37.7612 47.8448 38.3329 50.9948 38.9512C52.3832 39.2312 53.3748 40.4446 53.3748 41.8562Z" fill="#45895D"/>
<path d="M16.0417 65.1312V4.46456C16.0417 3.17539 14.9975 2.13123 13.7083 2.13123C12.4192 2.13123 11.375 3.17539 11.375 4.46456V65.1312H16.0417Z" fill="#C2C5CC"/>
<path d="M4.37508 62.798H23.0417C24.3298 62.798 25.3751 63.8433 25.3751 65.1313V68.6313C25.3751 69.2753 24.8524 69.798 24.2084 69.798H3.20841C2.56441 69.798 2.04175 69.2753 2.04175 68.6313V65.1313C2.04175 63.8433 3.08708 62.798 4.37508 62.798Z" fill="#A3A7AF"/>
<path d="M31.7916 30.1313C31.4825 30.1313 31.1861 30.01 30.9668 29.7895L28.0501 26.8728C27.594 26.4167 27.594 25.6793 28.0501 25.2232C28.5063 24.767 29.2436 24.767 29.6998 25.2232L31.6656 27.189L39.6095 16.5992C39.9956 16.0823 40.7271 15.9797 41.2416 16.3658C41.7573 16.752 41.8623 17.4835 41.475 17.998L32.725 29.6647C32.522 29.9353 32.2128 30.1045 31.8745 30.1278C31.8465 30.1302 31.8185 30.1313 31.7916 30.1313Z" fill="white"/>
</svg>
