<svg width="71" height="71" viewBox="0 0 71 71" fill="none" xmlns="http://www.w3.org/2000/svg">
<g clip-path="url(#clip0_84_3129)">
<path d="M57.9885 65.442L47.3447 34.4753H22.9051L12.2613 65.442C11.9479 66.3536 12.7771 67.2466 13.7094 67.0016L19.9457 65.363L23.8567 70.4893C24.4414 71.2557 25.6443 71.0611 25.9576 70.1495L35.1249 43.4785L44.2922 70.1496C44.6055 71.0611 45.8084 71.2558 46.3931 70.4894L50.3041 65.3631L56.5404 67.0017C57.4727 67.2464 58.3019 66.3536 57.9885 65.442Z" fill="#FF6464"/>
<path d="M51.3458 46.1164L47.3446 34.4753H22.905L18.9038 46.1164C22.7061 49.0558 27.3238 50.9906 32.3639 51.5113L35.1248 43.4785L37.8857 51.5112C42.9258 50.9904 47.5435 49.0557 51.3458 46.1164Z" fill="#D2555A"/>
<path d="M35.1248 49.2405C48.4558 49.2405 59.2628 38.4336 59.2628 25.1026C59.2628 11.7715 48.4558 0.9646 35.1248 0.9646C21.7938 0.9646 10.9868 11.7715 10.9868 25.1026C10.9868 38.4336 21.7938 49.2405 35.1248 49.2405Z" fill="#FFC36E"/>
<path d="M35.1248 0.9646C21.7937 0.9646 10.9868 11.7714 10.9868 25.1026C10.9868 38.4335 21.7936 49.2405 35.1248 49.2405C48.456 49.2405 59.2628 38.4335 59.2628 25.1026C59.2628 11.7714 48.4558 0.9646 35.1248 0.9646ZM35.1248 45.6198C23.7934 45.6198 14.6075 36.434 14.6075 25.1026C14.6075 13.7712 23.7934 4.58532 35.1248 4.58532C46.4562 4.58532 55.642 13.7712 55.642 25.1026C55.642 36.434 46.4562 45.6198 35.1248 45.6198Z" fill="#FFD782"/>
<path d="M35.1252 4.58533C23.7938 4.58533 14.6079 13.7712 14.6079 25.1026C14.6079 36.434 23.7938 45.6198 35.1252 45.6198C46.4565 45.6198 55.6424 36.434 55.6424 25.1026C55.6424 13.7712 46.4565 4.58533 35.1252 4.58533ZM35.1252 43.2061C25.1269 43.2061 17.0217 35.1008 17.0217 25.1026C17.0217 15.1043 25.1269 6.9991 35.1252 6.9991C45.1234 6.9991 53.2286 15.1043 53.2286 25.1026C53.2286 35.1008 45.1234 43.2061 35.1252 43.2061Z" fill="#EBB45F"/>
<path d="M35.2077 32.6781L29.2556 35.8073C28.2703 36.3254 27.1188 35.4888 27.307 34.3915L28.4437 27.7638L23.6283 23.0699C22.8311 22.293 23.271 20.9392 24.3726 20.7791L31.0271 19.8121L34.0032 13.7819C34.4959 12.7836 35.9193 12.7836 36.4119 13.7819L39.388 19.8121L46.0425 20.7791C47.144 20.9392 47.584 22.293 46.7868 23.0699L41.9714 27.7638L43.1081 34.3915C43.2962 35.4886 42.1446 36.3252 41.1595 35.8073L35.2077 32.6781Z" fill="#FFD782"/>
<path d="M35.2077 13.0336C35.6867 13.0336 36.1657 13.2832 36.4121 13.7823L39.3882 19.8124L46.0427 20.7794C47.1442 20.9395 47.5842 22.2933 46.787 23.0703L41.9718 27.7641L43.1084 34.3918C43.2573 35.2599 42.5674 35.9649 41.7849 35.9649C41.5783 35.9649 41.3653 35.9158 41.1597 35.8077L35.2077 32.6785L29.2558 35.8077C29.0502 35.9158 28.8371 35.9649 28.6306 35.9649C27.8479 35.9649 27.1582 35.26 27.307 34.3918L28.4437 27.7641L23.6285 23.0703C22.8313 22.2933 23.2712 20.9395 24.3728 20.7794L31.0273 19.8124L34.0034 13.7823C34.2496 13.2832 34.7287 13.0336 35.2077 13.0336ZM35.2077 10.6199C33.7673 10.6199 32.4764 11.4223 31.8389 12.7141L29.4244 17.6063L24.0257 18.3908C22.6002 18.598 21.4381 19.5777 20.9928 20.9476C20.5477 22.3175 20.912 23.7933 21.9436 24.7988L25.8502 28.6067L24.928 33.9837C24.7401 35.0786 25.0412 36.1908 25.7534 37.0358C26.4728 37.8892 27.5217 38.3787 28.6306 38.3787C29.2338 38.3787 29.8384 38.2284 30.3791 37.9442L35.2079 35.4055L40.0366 37.9442C40.5774 38.2284 41.1819 38.3787 41.7851 38.3787C42.8941 38.3787 43.9428 37.8891 44.6624 37.0357C45.3746 36.1909 45.6756 35.0784 45.4878 33.9837L44.5656 28.6067L48.4722 24.7988C49.5037 23.7934 49.868 22.3177 49.4229 20.9476C48.9778 19.5777 47.8157 18.598 46.3901 18.3908L40.9914 17.6063L38.5769 12.7141C37.9391 11.4223 36.6481 10.6199 35.2077 10.6199Z" fill="#EBB45F"/>
<path d="M46.0424 20.7792L39.3879 19.8122L36.4118 13.7821C35.919 12.7837 34.4957 12.7837 34.0031 13.7821L32.0923 17.6539L42.6617 35.6219C42.9927 35.3337 43.1944 34.8939 43.1083 34.3915L41.9716 27.7637L46.7868 23.0699C47.5838 22.2929 47.1441 20.9393 46.0424 20.7792Z" fill="#FFE6A0"/>
<path d="M49.4901 12.5216C47.407 12.0467 45.7671 10.4068 45.2921 8.32353C45.2563 8.16657 45.0486 8.16657 45.0129 8.32353C44.538 10.4066 42.8982 12.0465 40.815 12.5216C40.658 12.5574 40.658 12.7651 40.815 12.8008C42.898 13.2758 44.538 14.9154 45.0129 16.9987C45.0487 17.1557 45.2564 17.1557 45.2921 16.9987C45.7671 14.9154 47.4069 13.2758 49.4901 12.8008C49.647 12.7651 49.647 12.5573 49.4901 12.5216Z" fill="white"/>
<path d="M42.2707 19.3448C41.0028 19.0164 40.0043 18.0179 39.6759 16.75C39.6428 16.6227 39.4781 16.6227 39.4451 16.75C39.1167 18.0179 38.1183 19.0164 36.8503 19.3448C36.7231 19.3779 36.7231 19.5426 36.8503 19.5756C38.1183 19.904 39.1167 20.9023 39.4451 22.1704C39.4782 22.2976 39.643 22.2976 39.6759 22.1704C40.0043 20.9022 41.0028 19.904 42.2707 19.5756C42.398 19.5425 42.398 19.3776 42.2707 19.3448Z" fill="white"/>
</g>
<defs>
<clipPath id="clip0_84_3129">
<rect width="70" height="70" fill="white" transform="translate(0.125 0.9646)"/>
</clipPath>
</defs>
</svg>
