<svg width="71" height="71" viewBox="0 0 71 71" fill="none" xmlns="http://www.w3.org/2000/svg">
<g clip-path="url(#clip0_84_3091)">
<path d="M63.8508 9.43237H7.39908C5.66412 9.43237 4.08147 10.0844 2.88299 11.1571L1.73975 16.2067V49.0312C1.73975 52.7725 4.77258 55.8055 8.51389 55.8055H63.8507L68.9002 54.5937C69.9728 53.3952 70.6248 51.8125 70.6248 50.0776V16.2065C70.6249 12.4652 67.5921 9.43237 63.8508 9.43237Z" fill="#FF442B"/>
<path d="M57.0766 62.4967H14.1735C13.5493 62.4967 13.0444 61.9911 13.0444 61.3677C13.0444 60.7442 13.5495 60.2386 14.1735 60.2386H57.0766C57.7007 60.2386 58.2056 60.7442 58.2056 61.3677C58.2056 61.9911 57.7007 62.4967 57.0766 62.4967Z" fill="#FF442B"/>
<path d="M47.3923 31.1223L29.8608 22.3565C29.704 22.2781 29.5445 22.2187 29.3841 22.1791L27.5742 24.3761V41.9076L29.8608 42.8345L47.3923 34.0688L48.1192 31.6916C47.929 31.465 47.6866 31.2695 47.3923 31.1223Z" fill="white"/>
<path d="M7.39914 54.5936C4.90498 54.5936 2.88305 52.5717 2.88305 50.0775V11.157C1.50014 12.3973 0.625 14.2028 0.625 16.2066V50.0775C0.625 53.8188 3.65783 56.8517 7.39914 56.8517H63.8507C65.8545 56.8517 67.6603 55.9765 68.9003 54.5936H7.39914Z" fill="#DC2B12"/>
<path d="M34.2858 38.6127C32.0338 39.7387 29.3839 38.1011 29.3839 35.5831V22.179C28.0095 21.8385 26.5928 22.8725 26.5928 24.3762V41.9078C26.5928 43.5864 28.3593 44.6781 29.8606 43.9274L47.3921 35.1616C48.7612 34.4771 49.0023 32.7466 48.119 31.6917L34.2858 38.6127Z" fill="#E3F5FF"/>
</g>
<defs>
<clipPath id="clip0_84_3091">
<rect width="70" height="70" fill="white" transform="translate(0.625 0.9646)"/>
</clipPath>
</defs>
</svg>
